<mxfile host="app.diagrams.net" agent="Mozilla/5.0 (Macintosh; Intel Mac OS X 10_15_7) AppleWebKit/537.36 (KHTML, like Gecko) Chrome/126.0.0.0 Safari/537.36" version="24.7.4">
  <diagram name="Page-1" id="vTBD3gxT1T7JrT-jX6bw">
    <mxGraphModel dx="2670" dy="2525" grid="1" gridSize="10" guides="1" tooltips="1" connect="1" arrows="1" fold="1" page="1" pageScale="1" pageWidth="827" pageHeight="1169" math="0" shadow="0">
      <root>
        <mxCell id="0" />
        <mxCell id="1" parent="0" />
        <mxCell id="YCmqHXXHnJGSB3PKhIUc-11" value="" style="rounded=0;whiteSpace=wrap;html=1;fontColor=#FFFFFF;dashed=1;movable=0;resizable=0;rotatable=0;deletable=0;editable=0;locked=1;connectable=0;" parent="1" vertex="1">
          <mxGeometry x="57.5" y="-30" width="640" height="890" as="geometry" />
        </mxCell>
        <mxCell id="YCmqHXXHnJGSB3PKhIUc-51" style="edgeStyle=orthogonalEdgeStyle;rounded=0;orthogonalLoop=1;jettySize=auto;html=1;" parent="1" source="YCmqHXXHnJGSB3PKhIUc-2" edge="1">
          <mxGeometry relative="1" as="geometry">
            <mxPoint x="375" y="220" as="targetPoint" />
          </mxGeometry>
        </mxCell>
        <mxCell id="YCmqHXXHnJGSB3PKhIUc-2" value="" style="rounded=0;arcSize=10;whiteSpace=wrap;html=1;align=center;fillColor=#f8cecc;strokeColor=#b85450;glass=0;" parent="1" vertex="1">
          <mxGeometry x="160" y="70" width="430" height="110" as="geometry" />
        </mxCell>
        <mxCell id="YCmqHXXHnJGSB3PKhIUc-3" value="" style="whiteSpace=wrap;html=1;align=center;fillColor=#f8cecc;strokeColor=#b85450;" parent="1" vertex="1">
          <mxGeometry x="162.5" y="220" width="430" height="110" as="geometry" />
        </mxCell>
        <mxCell id="YCmqHXXHnJGSB3PKhIUc-49" style="edgeStyle=orthogonalEdgeStyle;rounded=0;orthogonalLoop=1;jettySize=auto;html=1;" parent="1" source="YCmqHXXHnJGSB3PKhIUc-4" edge="1">
          <mxGeometry relative="1" as="geometry">
            <mxPoint x="378" y="590" as="targetPoint" />
          </mxGeometry>
        </mxCell>
        <mxCell id="YCmqHXXHnJGSB3PKhIUc-4" value="" style="whiteSpace=wrap;html=1;align=center;fillColor=#f8cecc;strokeColor=#b85450;" parent="1" vertex="1">
          <mxGeometry x="158.75" y="390" width="437.5" height="110" as="geometry" />
        </mxCell>
        <mxCell id="YCmqHXXHnJGSB3PKhIUc-14" value="DogsApi" style="rounded=0;whiteSpace=wrap;html=1;fillColor=#ffe6cc;strokeColor=#d79b00;" parent="1" vertex="1">
          <mxGeometry x="64.25" y="980" width="640" height="160" as="geometry" />
        </mxCell>
        <mxCell id="YCmqHXXHnJGSB3PKhIUc-19" style="edgeStyle=orthogonalEdgeStyle;rounded=0;orthogonalLoop=1;jettySize=auto;html=1;entryX=0.336;entryY=0;entryDx=0;entryDy=0;entryPerimeter=0;" parent="1" source="YCmqHXXHnJGSB3PKhIUc-15" target="YCmqHXXHnJGSB3PKhIUc-14" edge="1">
          <mxGeometry relative="1" as="geometry" />
        </mxCell>
        <mxCell id="YCmqHXXHnJGSB3PKhIUc-22" value="&lt;font style=&quot;font-size: 20px;&quot;&gt;Server Architecture&lt;/font&gt;" style="text;strokeColor=none;align=center;fillColor=none;html=1;verticalAlign=middle;whiteSpace=wrap;rounded=0;" parent="1" vertex="1">
          <mxGeometry x="260" width="210" height="30" as="geometry" />
        </mxCell>
        <mxCell id="YCmqHXXHnJGSB3PKhIUc-23" value="" style="rounded=0;whiteSpace=wrap;html=1;movable=0;resizable=0;rotatable=0;deletable=0;editable=0;locked=1;connectable=0;dashed=1;" parent="1" vertex="1">
          <mxGeometry x="-960" y="-40" width="800" height="940" as="geometry" />
        </mxCell>
        <mxCell id="YCmqHXXHnJGSB3PKhIUc-24" value="Web Appliction" style="text;strokeColor=none;align=center;fillColor=none;html=1;verticalAlign=middle;whiteSpace=wrap;rounded=0;fontSize=20;" parent="1" vertex="1">
          <mxGeometry x="-685" y="-30" width="210" height="30" as="geometry" />
        </mxCell>
        <mxCell id="YCmqHXXHnJGSB3PKhIUc-30" value="&lt;font style=&quot;font-size: 20px;&quot;&gt;Models&lt;/font&gt;" style="text;strokeColor=none;align=center;fillColor=none;html=1;verticalAlign=middle;whiteSpace=wrap;rounded=0;fontSize=20;" parent="1" vertex="1">
          <mxGeometry x="350" y="390" width="60" height="30" as="geometry" />
        </mxCell>
        <mxCell id="YCmqHXXHnJGSB3PKhIUc-31" value="BreedModel" style="rounded=0;whiteSpace=wrap;html=1;fillColor=#d5e8d4;strokeColor=#82b366;" parent="1" vertex="1">
          <mxGeometry x="180" y="430" width="80" height="50" as="geometry" />
        </mxCell>
        <mxCell id="YCmqHXXHnJGSB3PKhIUc-32" value="Other" style="rounded=0;whiteSpace=wrap;html=1;fillColor=#d5e8d4;strokeColor=#82b366;" parent="1" vertex="1">
          <mxGeometry x="280" y="430" width="60" height="50" as="geometry" />
        </mxCell>
        <mxCell id="YCmqHXXHnJGSB3PKhIUc-33" value="Other" style="rounded=0;whiteSpace=wrap;html=1;fillColor=#d5e8d4;strokeColor=#82b366;" parent="1" vertex="1">
          <mxGeometry x="350" y="430" width="60" height="50" as="geometry" />
        </mxCell>
        <mxCell id="YCmqHXXHnJGSB3PKhIUc-34" value="&lt;font style=&quot;font-size: 20px;&quot;&gt;Controllers&lt;/font&gt;" style="text;strokeColor=none;align=center;fillColor=none;html=1;verticalAlign=middle;whiteSpace=wrap;rounded=0;fontSize=20;" parent="1" vertex="1">
          <mxGeometry x="340" y="230" width="60" height="30" as="geometry" />
        </mxCell>
        <mxCell id="YCmqHXXHnJGSB3PKhIUc-35" value="BreedsController" style="rounded=0;whiteSpace=wrap;html=1;fillColor=#d5e8d4;strokeColor=#82b366;" parent="1" vertex="1">
          <mxGeometry x="180" y="270" width="130" height="50" as="geometry" />
        </mxCell>
        <mxCell id="YCmqHXXHnJGSB3PKhIUc-36" value="Other" style="rounded=0;whiteSpace=wrap;html=1;fillColor=#d5e8d4;strokeColor=#82b366;" parent="1" vertex="1">
          <mxGeometry x="410" y="270" width="60" height="50" as="geometry" />
        </mxCell>
        <mxCell id="YCmqHXXHnJGSB3PKhIUc-37" value="Other" style="rounded=0;whiteSpace=wrap;html=1;fillColor=#d5e8d4;strokeColor=#82b366;" parent="1" vertex="1">
          <mxGeometry x="335" y="270" width="60" height="50" as="geometry" />
        </mxCell>
        <mxCell id="YCmqHXXHnJGSB3PKhIUc-38" value="&lt;font style=&quot;font-size: 20px;&quot;&gt;Routes&lt;/font&gt;" style="text;strokeColor=none;align=center;fillColor=none;html=1;verticalAlign=middle;whiteSpace=wrap;rounded=0;" parent="1" vertex="1">
          <mxGeometry x="335" y="80" width="60" height="30" as="geometry" />
        </mxCell>
        <mxCell id="YCmqHXXHnJGSB3PKhIUc-40" value="BreedsRouter" style="rounded=0;whiteSpace=wrap;html=1;fillColor=#d5e8d4;strokeColor=#82b366;" parent="1" vertex="1">
          <mxGeometry x="167.5" y="120" width="130" height="50" as="geometry" />
        </mxCell>
        <mxCell id="YCmqHXXHnJGSB3PKhIUc-41" value="Other" style="rounded=0;whiteSpace=wrap;html=1;fillColor=#d5e8d4;strokeColor=#82b366;" parent="1" vertex="1">
          <mxGeometry x="317.5" y="120" width="60" height="50" as="geometry" />
        </mxCell>
        <mxCell id="YCmqHXXHnJGSB3PKhIUc-42" value="Other" style="rounded=0;whiteSpace=wrap;html=1;fillColor=#d5e8d4;strokeColor=#82b366;" parent="1" vertex="1">
          <mxGeometry x="392.5" y="120" width="60" height="50" as="geometry" />
        </mxCell>
        <mxCell id="YCmqHXXHnJGSB3PKhIUc-44" value="" style="group" parent="1" vertex="1" connectable="0">
          <mxGeometry x="156.25" y="585" width="450" height="220" as="geometry" />
        </mxCell>
        <mxCell id="YCmqHXXHnJGSB3PKhIUc-8" value="" style="shape=ext;margin=3;double=1;whiteSpace=wrap;html=1;align=center;shadow=0;fillColor=#f8cecc;strokeColor=default;rounded=0;aspect=fixed;" parent="YCmqHXXHnJGSB3PKhIUc-44" vertex="1">
          <mxGeometry width="450" height="220" as="geometry" />
        </mxCell>
        <mxCell id="YCmqHXXHnJGSB3PKhIUc-9" value="" style="whiteSpace=wrap;html=1;align=center;fillColor=#dae8fc;strokeColor=#6c8ebf;aspect=fixed;" parent="YCmqHXXHnJGSB3PKhIUc-44" vertex="1">
          <mxGeometry x="23.75" y="85" width="410" height="120" as="geometry" />
        </mxCell>
        <mxCell id="YCmqHXXHnJGSB3PKhIUc-13" value="&lt;font style=&quot;font-size: 20px;&quot;&gt;Cache&lt;/font&gt;" style="text;strokeColor=none;align=center;fillColor=none;html=1;verticalAlign=middle;whiteSpace=wrap;rounded=0;aspect=fixed;" parent="YCmqHXXHnJGSB3PKhIUc-44" vertex="1">
          <mxGeometry x="193.75" y="15" width="60" height="30" as="geometry" />
        </mxCell>
        <mxCell id="YCmqHXXHnJGSB3PKhIUc-15" value="" style="rounded=0;whiteSpace=wrap;html=1;fillColor=#d5e8d4;strokeColor=#82b366;aspect=fixed;" parent="YCmqHXXHnJGSB3PKhIUc-44" vertex="1">
          <mxGeometry x="43.75" y="125" width="160" height="60" as="geometry" />
        </mxCell>
        <mxCell id="YCmqHXXHnJGSB3PKhIUc-16" value="&lt;font style=&quot;font-size: 14px;&quot;&gt;BreedsDataConnector&lt;/font&gt;" style="text;strokeColor=none;align=center;fillColor=none;html=1;verticalAlign=middle;whiteSpace=wrap;rounded=0;aspect=fixed;" parent="YCmqHXXHnJGSB3PKhIUc-44" vertex="1">
          <mxGeometry x="93.75" y="145" width="60" height="30" as="geometry" />
        </mxCell>
        <mxCell id="YCmqHXXHnJGSB3PKhIUc-17" value="&lt;font style=&quot;font-size: 16px;&quot;&gt;DataConnectors&lt;/font&gt;" style="text;strokeColor=none;align=center;fillColor=none;html=1;verticalAlign=middle;whiteSpace=wrap;rounded=0;aspect=fixed;" parent="YCmqHXXHnJGSB3PKhIUc-44" vertex="1">
          <mxGeometry x="193.75" y="85" width="60" height="30" as="geometry" />
        </mxCell>
        <mxCell id="YCmqHXXHnJGSB3PKhIUc-18" value="Other" style="rounded=0;whiteSpace=wrap;html=1;fillColor=#d5e8d4;strokeColor=#82b366;aspect=fixed;" parent="YCmqHXXHnJGSB3PKhIUc-44" vertex="1">
          <mxGeometry x="213.75" y="125" width="60" height="60" as="geometry" />
        </mxCell>
        <mxCell id="YCmqHXXHnJGSB3PKhIUc-26" value="Other" style="rounded=0;whiteSpace=wrap;html=1;fillColor=#d5e8d4;strokeColor=#82b366;aspect=fixed;" parent="YCmqHXXHnJGSB3PKhIUc-44" vertex="1">
          <mxGeometry x="283.75" y="125" width="60" height="60" as="geometry" />
        </mxCell>
        <mxCell id="YCmqHXXHnJGSB3PKhIUc-27" value="Other" style="rounded=0;whiteSpace=wrap;html=1;fillColor=#d5e8d4;strokeColor=#82b366;aspect=fixed;" parent="YCmqHXXHnJGSB3PKhIUc-44" vertex="1">
          <mxGeometry x="353.75" y="125" width="60" height="60" as="geometry" />
        </mxCell>
        <mxCell id="YCmqHXXHnJGSB3PKhIUc-29" value="Text" style="text;strokeColor=none;align=center;fillColor=none;html=1;verticalAlign=middle;whiteSpace=wrap;rounded=0;aspect=fixed;" parent="YCmqHXXHnJGSB3PKhIUc-44" vertex="1">
          <mxGeometry x="313.75" y="105" width="60" height="30" as="geometry" />
        </mxCell>
        <mxCell id="YCmqHXXHnJGSB3PKhIUc-50" style="edgeStyle=orthogonalEdgeStyle;rounded=0;orthogonalLoop=1;jettySize=auto;html=1;entryX=0.45;entryY=-0.235;entryDx=0;entryDy=0;entryPerimeter=0;" parent="1" source="YCmqHXXHnJGSB3PKhIUc-3" target="YCmqHXXHnJGSB3PKhIUc-30" edge="1">
          <mxGeometry relative="1" as="geometry">
            <Array as="points">
              <mxPoint x="378" y="360" />
            </Array>
          </mxGeometry>
        </mxCell>
        <mxCell id="YCmqHXXHnJGSB3PKhIUc-100" style="edgeStyle=orthogonalEdgeStyle;rounded=0;orthogonalLoop=1;jettySize=auto;html=1;entryX=0.45;entryY=-0.235;entryDx=0;entryDy=0;entryPerimeter=0;" parent="1" source="YCmqHXXHnJGSB3PKhIUc-86" target="YCmqHXXHnJGSB3PKhIUc-88" edge="1">
          <mxGeometry relative="1" as="geometry">
            <Array as="points">
              <mxPoint x="-702" y="390" />
            </Array>
          </mxGeometry>
        </mxCell>
        <mxCell id="YCmqHXXHnJGSB3PKhIUc-101" value="" style="group" parent="1" vertex="1" connectable="0">
          <mxGeometry x="-917.5" y="630" width="437.5" height="120" as="geometry" />
        </mxCell>
        <mxCell id="YCmqHXXHnJGSB3PKhIUc-87" value="" style="whiteSpace=wrap;html=1;align=center;fillColor=#f8cecc;strokeColor=#b85450;" parent="YCmqHXXHnJGSB3PKhIUc-101" vertex="1">
          <mxGeometry width="437.5" height="120" as="geometry" />
        </mxCell>
        <mxCell id="YCmqHXXHnJGSB3PKhIUc-88" value="&lt;font style=&quot;font-size: 20px;&quot;&gt;Services&lt;/font&gt;" style="text;strokeColor=none;align=center;fillColor=none;html=1;verticalAlign=middle;whiteSpace=wrap;rounded=0;fontSize=20;" parent="YCmqHXXHnJGSB3PKhIUc-101" vertex="1">
          <mxGeometry x="188.75" width="60" height="32.72727272727273" as="geometry" />
        </mxCell>
        <mxCell id="YCmqHXXHnJGSB3PKhIUc-89" value="BreedsServices" style="rounded=0;whiteSpace=wrap;html=1;fillColor=#d5e8d4;strokeColor=#82b366;" parent="YCmqHXXHnJGSB3PKhIUc-101" vertex="1">
          <mxGeometry x="18.75" y="43.63636363636363" width="120" height="54.54545454545454" as="geometry" />
        </mxCell>
        <mxCell id="YCmqHXXHnJGSB3PKhIUc-90" value="Other" style="rounded=0;whiteSpace=wrap;html=1;fillColor=#d5e8d4;strokeColor=#82b366;" parent="YCmqHXXHnJGSB3PKhIUc-101" vertex="1">
          <mxGeometry x="156.25" y="43.63636363636363" width="60" height="54.54545454545454" as="geometry" />
        </mxCell>
        <mxCell id="YCmqHXXHnJGSB3PKhIUc-91" value="Other" style="rounded=0;whiteSpace=wrap;html=1;fillColor=#d5e8d4;strokeColor=#82b366;" parent="YCmqHXXHnJGSB3PKhIUc-101" vertex="1">
          <mxGeometry x="228.75" y="43.63636363636363" width="60" height="54.54545454545454" as="geometry" />
        </mxCell>
        <mxCell id="YCmqHXXHnJGSB3PKhIUc-102" value="" style="group" parent="1" vertex="1" connectable="0">
          <mxGeometry x="-910" y="310" width="430" height="190" as="geometry" />
        </mxCell>
        <mxCell id="YCmqHXXHnJGSB3PKhIUc-86" value="" style="whiteSpace=wrap;html=1;align=center;fillColor=#f8cecc;strokeColor=#b85450;" parent="YCmqHXXHnJGSB3PKhIUc-102" vertex="1">
          <mxGeometry width="430" height="190" as="geometry" />
        </mxCell>
        <mxCell id="YCmqHXXHnJGSB3PKhIUc-92" value="&lt;font style=&quot;font-size: 20px;&quot;&gt;Controllers&lt;/font&gt;" style="text;strokeColor=none;align=center;fillColor=none;html=1;verticalAlign=middle;whiteSpace=wrap;rounded=0;fontSize=20;" parent="YCmqHXXHnJGSB3PKhIUc-102" vertex="1">
          <mxGeometry x="177.5" y="17.272727272727273" width="60" height="51.81818181818182" as="geometry" />
        </mxCell>
        <mxCell id="YCmqHXXHnJGSB3PKhIUc-93" value="BreedsController" style="rounded=0;whiteSpace=wrap;html=1;fillColor=#d5e8d4;strokeColor=#82b366;" parent="YCmqHXXHnJGSB3PKhIUc-102" vertex="1">
          <mxGeometry x="17.5" y="86.36363636363636" width="130" height="86.36363636363636" as="geometry" />
        </mxCell>
        <mxCell id="YCmqHXXHnJGSB3PKhIUc-94" value="Other" style="rounded=0;whiteSpace=wrap;html=1;fillColor=#d5e8d4;strokeColor=#82b366;" parent="YCmqHXXHnJGSB3PKhIUc-102" vertex="1">
          <mxGeometry x="247.5" y="86.36363636363636" width="60" height="86.36363636363636" as="geometry" />
        </mxCell>
        <mxCell id="YCmqHXXHnJGSB3PKhIUc-95" value="Other" style="rounded=0;whiteSpace=wrap;html=1;fillColor=#d5e8d4;strokeColor=#82b366;" parent="YCmqHXXHnJGSB3PKhIUc-102" vertex="1">
          <mxGeometry x="172.5" y="86.36363636363636" width="60" height="86.36363636363636" as="geometry" />
        </mxCell>
        <mxCell id="YCmqHXXHnJGSB3PKhIUc-105" value="" style="rounded=0;whiteSpace=wrap;html=1;fillColor=#fff2cc;strokeColor=#d6b656;" parent="1" vertex="1">
          <mxGeometry x="-390" y="550" width="170" height="270" as="geometry" />
        </mxCell>
        <mxCell id="YCmqHXXHnJGSB3PKhIUc-106" value="&lt;font style=&quot;font-size: 16px;&quot;&gt;Interceptors&lt;/font&gt;" style="text;strokeColor=none;align=center;fillColor=none;html=1;verticalAlign=middle;whiteSpace=wrap;rounded=0;" parent="1" vertex="1">
          <mxGeometry x="-345" y="560" width="80" height="30" as="geometry" />
        </mxCell>
        <mxCell id="YCmqHXXHnJGSB3PKhIUc-107" value="" style="rounded=0;whiteSpace=wrap;html=1;fillColor=#dae8fc;strokeColor=#6c8ebf;" parent="1" vertex="1">
          <mxGeometry x="-280" y="600" width="40" height="170" as="geometry" />
        </mxCell>
        <mxCell id="YCmqHXXHnJGSB3PKhIUc-108" value="ErrorHandling" style="text;strokeColor=none;align=center;fillColor=none;html=1;verticalAlign=middle;whiteSpace=wrap;rounded=0;" parent="1" vertex="1">
          <mxGeometry x="-305" y="780" width="85" height="20" as="geometry" />
        </mxCell>
        <mxCell id="YCmqHXXHnJGSB3PKhIUc-109" style="edgeStyle=orthogonalEdgeStyle;rounded=0;orthogonalLoop=1;jettySize=auto;html=1;entryX=0.002;entryY=0.6;entryDx=0;entryDy=0;entryPerimeter=0;" parent="1" source="YCmqHXXHnJGSB3PKhIUc-107" target="YCmqHXXHnJGSB3PKhIUc-2" edge="1">
          <mxGeometry relative="1" as="geometry" />
        </mxCell>
        <mxCell id="YCmqHXXHnJGSB3PKhIUc-111" style="edgeStyle=orthogonalEdgeStyle;rounded=0;orthogonalLoop=1;jettySize=auto;html=1;entryX=0.997;entryY=0.442;entryDx=0;entryDy=0;entryPerimeter=0;" parent="1" source="YCmqHXXHnJGSB3PKhIUc-107" target="YCmqHXXHnJGSB3PKhIUc-87" edge="1">
          <mxGeometry relative="1" as="geometry">
            <Array as="points">
              <mxPoint x="-380" y="685" />
              <mxPoint x="-380" y="683" />
            </Array>
          </mxGeometry>
        </mxCell>
        <mxCell id="YCmqHXXHnJGSB3PKhIUc-113" value="" style="rounded=0;whiteSpace=wrap;html=1;fillColor=#dae8fc;strokeColor=#6c8ebf;" parent="1" vertex="1">
          <mxGeometry x="-350" y="600" width="40" height="170" as="geometry" />
        </mxCell>
        <mxCell id="YCmqHXXHnJGSB3PKhIUc-128" style="edgeStyle=orthogonalEdgeStyle;rounded=0;orthogonalLoop=1;jettySize=auto;html=1;" parent="1" source="YCmqHXXHnJGSB3PKhIUc-85" edge="1">
          <mxGeometry relative="1" as="geometry">
            <mxPoint x="-698.75" y="310" as="targetPoint" />
          </mxGeometry>
        </mxCell>
        <mxCell id="YCmqHXXHnJGSB3PKhIUc-85" value="" style="rounded=0;arcSize=10;whiteSpace=wrap;html=1;align=center;fillColor=#f8cecc;strokeColor=#b85450;glass=0;" parent="1" vertex="1">
          <mxGeometry x="-917.5" y="20" width="437.5" height="240" as="geometry" />
        </mxCell>
        <mxCell id="YCmqHXXHnJGSB3PKhIUc-96" value="&lt;font style=&quot;font-size: 20px;&quot;&gt;Routes&lt;/font&gt;" style="text;strokeColor=none;align=center;fillColor=none;html=1;verticalAlign=middle;whiteSpace=wrap;rounded=0;" parent="1" vertex="1">
          <mxGeometry x="-730" y="30" width="60" height="30" as="geometry" />
        </mxCell>
        <mxCell id="YCmqHXXHnJGSB3PKhIUc-126" style="edgeStyle=orthogonalEdgeStyle;rounded=0;orthogonalLoop=1;jettySize=auto;html=1;entryX=0.5;entryY=0;entryDx=0;entryDy=0;" parent="1" source="YCmqHXXHnJGSB3PKhIUc-97" target="YCmqHXXHnJGSB3PKhIUc-124" edge="1">
          <mxGeometry relative="1" as="geometry" />
        </mxCell>
        <mxCell id="YCmqHXXHnJGSB3PKhIUc-97" value="BreedsRouter" style="rounded=0;whiteSpace=wrap;html=1;fillColor=#d5e8d4;strokeColor=#82b366;" parent="1" vertex="1">
          <mxGeometry x="-660" y="70" width="130" height="50" as="geometry" />
        </mxCell>
        <mxCell id="YCmqHXXHnJGSB3PKhIUc-98" value="DetailsRoute" style="rounded=0;whiteSpace=wrap;html=1;fillColor=#d5e8d4;strokeColor=#82b366;" parent="1" vertex="1">
          <mxGeometry x="-665" y="190" width="140" height="50" as="geometry" />
        </mxCell>
        <mxCell id="YCmqHXXHnJGSB3PKhIUc-99" value="Other" style="rounded=0;whiteSpace=wrap;html=1;fillColor=#d5e8d4;strokeColor=#82b366;" parent="1" vertex="1">
          <mxGeometry x="-860" y="180" width="60" height="50" as="geometry" />
        </mxCell>
        <mxCell id="YCmqHXXHnJGSB3PKhIUc-123" style="edgeStyle=orthogonalEdgeStyle;rounded=0;orthogonalLoop=1;jettySize=auto;html=1;exitX=1;exitY=0.5;exitDx=0;exitDy=0;" parent="1" source="YCmqHXXHnJGSB3PKhIUc-116" target="YCmqHXXHnJGSB3PKhIUc-97" edge="1">
          <mxGeometry relative="1" as="geometry" />
        </mxCell>
        <mxCell id="YCmqHXXHnJGSB3PKhIUc-116" value="" style="rounded=0;whiteSpace=wrap;html=1;" parent="1" vertex="1">
          <mxGeometry x="-720" y="70" width="20" height="60" as="geometry" />
        </mxCell>
        <mxCell id="YCmqHXXHnJGSB3PKhIUc-129" style="edgeStyle=orthogonalEdgeStyle;rounded=0;orthogonalLoop=1;jettySize=auto;html=1;entryX=0;entryY=0.5;entryDx=0;entryDy=0;" parent="1" source="YCmqHXXHnJGSB3PKhIUc-117" target="YCmqHXXHnJGSB3PKhIUc-116" edge="1">
          <mxGeometry relative="1" as="geometry" />
        </mxCell>
        <mxCell id="YCmqHXXHnJGSB3PKhIUc-117" value="Home" style="rounded=0;whiteSpace=wrap;html=1;fillColor=#d5e8d4;strokeColor=#82b366;" parent="1" vertex="1">
          <mxGeometry x="-890" y="70" width="127" height="50" as="geometry" />
        </mxCell>
        <mxCell id="YCmqHXXHnJGSB3PKhIUc-118" value="Resolver" style="text;strokeColor=none;align=center;fillColor=none;html=1;verticalAlign=middle;whiteSpace=wrap;rounded=0;" parent="1" vertex="1">
          <mxGeometry x="-740" y="135" width="60" height="30" as="geometry" />
        </mxCell>
        <mxCell id="YCmqHXXHnJGSB3PKhIUc-127" style="edgeStyle=orthogonalEdgeStyle;rounded=0;orthogonalLoop=1;jettySize=auto;html=1;" parent="1" source="YCmqHXXHnJGSB3PKhIUc-124" target="YCmqHXXHnJGSB3PKhIUc-98" edge="1">
          <mxGeometry relative="1" as="geometry" />
        </mxCell>
        <mxCell id="YCmqHXXHnJGSB3PKhIUc-124" value="" style="rounded=0;whiteSpace=wrap;html=1;" parent="1" vertex="1">
          <mxGeometry x="-655" y="145" width="120" height="20" as="geometry" />
        </mxCell>
      </root>
    </mxGraphModel>
  </diagram>
</mxfile>
